# xmcd
#
# Track frame offsets:
#	150
#	5070
#	23837
#	44280
#	68895
#	86497
#	106695
#	127787
#	150607
#	163797
#	183045
#	207670
#	243022
#
# Disc length: 3526 seconds
#
# Revision: 3
# Processed by: cddbd v1.4PL0 Copyright (c) Steve Scherf et al.
# Submitted via: audiograbber 1.82.02
#
DISCID=9a0dc40d
DTITLE=Otis Rush - So Many Roads
DYEAR=1995
DGENRE=Blues
TTITLE0=Introduction
TTITLE1=Will My Woman Be Home Tonight (Blue Guitar)
TTITLE2=Everyday I Have The Blues
TTITLE3=I Can't Quit You Baby
TTITLE4=Crosscut Saw
TTITLE5=Looking Back (Take A Look Behind)
TTITLE6=Chitlins Con Carne
TTITLE7=I've Got News For You
TTITLE8=Mean Old World
TTITLE9=All Your Love (I Miss Loving)
TTITLE10=So Many Roads
TTITLE11=Gambler's Blues
TTITLE12=Three Times A Fool
EXTD=
EXTT0=
EXTT1=
EXTT2=
EXTT3=
EXTT4=
EXTT5=
EXTT6=
EXTT7=
EXTT8=
EXTT9=
EXTT10=
EXTT11=
EXTT12=
PLAYORDER=
